<svg width="880" height="380" viewBox="0 0 880 380" fill="none" xmlns="http://www.w3.org/2000/svg">
  <rect width="880" height="380" rx="24" fill="#ffffff" stroke="#e9e5df" stroke-width="2" />
  <rect x="50" y="70" width="180" height="70" rx="12" fill="#0c5a69" fill-opacity="0.08" stroke="#0c5a69" stroke-width="2" />
  <text x="140" y="112" text-anchor="middle" font-family="Manrope, sans-serif" font-size="16" fill="#0c5a69" font-weight="700">RFP intake</text>
  <rect x="350" y="40" width="180" height="70" rx="12" fill="#ffffff" stroke="#0c5a69" stroke-width="2" />
  <text x="440" y="82" text-anchor="middle" font-family="Manrope, sans-serif" font-size="16" fill="#0c5a69" font-weight="700">Question map</text>
  <rect x="350" y="150" width="180" height="70" rx="12" fill="#ffffff" stroke="#0c5a69" stroke-width="2" />
  <text x="440" y="192" text-anchor="middle" font-family="Manrope, sans-serif" font-size="16" fill="#0c5a69" font-weight="700">Governed narratives</text>
  <rect x="650" y="70" width="180" height="70" rx="12" fill="#0c5a69" fill-opacity="0.08" stroke="#0c5a69" stroke-width="2" />
  <text x="740" y="112" text-anchor="middle" font-family="Manrope, sans-serif" font-size="16" fill="#0c5a69" font-weight="700">Templates by journey</text>
  <rect x="650" y="180" width="180" height="70" rx="12" fill="#0c5a69" fill-opacity="0.08" stroke="#0c5a69" stroke-width="2" />
  <text x="740" y="222" text-anchor="middle" font-family="Manrope, sans-serif" font-size="16" fill="#0c5a69" font-weight="700">Review cadence</text>
  <path d="M230 105 H340" stroke="#0c5a69" stroke-width="2" marker-end="url(#arrow)" />
  <path d="M440 110 V150" stroke="#0c5a69" stroke-width="2" marker-end="url(#arrow)" />
  <path d="M530 75 H640" stroke="#0c5a69" stroke-width="2" marker-end="url(#arrow)" />
  <path d="M530 185 H640" stroke="#0c5a69" stroke-width="2" marker-end="url(#arrow)" />
  <path d="M440 220 C440 260 500 280 560 250" stroke="#0c5a69" stroke-width="2" fill="none" marker-end="url(#arrow)" />
  <path d="M740 250 C740 280 660 300 520 300" stroke="#0c5a69" stroke-width="2" fill="none" marker-end="url(#arrow)" />
  <path d="M520 300 C400 300 260 280 200 220" stroke="#0c5a69" stroke-width="2" fill="none" marker-end="url(#arrow)" />
  <text x="440" y="330" text-anchor="middle" font-family="Manrope, sans-serif" font-size="14" fill="#4a463f">Loop: enablement → retro → refresh</text>
  <defs>
    <marker id="arrow" markerWidth="10" markerHeight="10" refX="5" refY="5" orient="auto" fill="#0c5a69">
      <path d="M0 0 L10 5 L0 10 z" />
    </marker>
  </defs>
</svg>
