<svg width="900" height="360" viewBox="0 0 900 360" fill="none" xmlns="http://www.w3.org/2000/svg">
  <defs>
    <linearGradient id="bg" x1="70" y1="20" x2="820" y2="340" gradientUnits="userSpaceOnUse">
      <stop stop-color="#ffffff" />
      <stop offset="1" stop-color="#f4fbf8" />
    </linearGradient>
    <marker id="arrow" markerWidth="10" markerHeight="10" refX="5" refY="5" orient="auto" fill="#0c5a69">
      <path d="M0 0 L10 5 L0 10 z" />
    </marker>
  </defs>

  <rect width="900" height="360" rx="26" fill="url(#bg)" stroke="#e9e5df" stroke-width="2" />

  <rect x="70" y="138" width="190" height="74" rx="14" fill="#d7f5ef" stroke="#0c5a69" stroke-width="2" />
  <text x="165" y="181" text-anchor="middle" font-family="Manrope, sans-serif" font-size="16" fill="#0c5a69" font-weight="700" dominant-baseline="middle">Idea</text>

  <rect x="300" y="86" width="230" height="74" rx="14" fill="#ffffff" stroke="#0c5a69" stroke-width="2" />
  <text x="415" y="123" text-anchor="middle" font-family="Manrope, sans-serif" font-size="16" fill="#0c5a69" font-weight="700" dominant-baseline="middle">Plain language</text>

  <rect x="300" y="198" width="230" height="74" rx="14" fill="#ffffff" stroke="#0c5a69" stroke-width="2" />
  <text x="415" y="235" text-anchor="middle" font-family="Manrope, sans-serif" font-size="16" fill="#0c5a69" font-weight="700" dominant-baseline="middle">Structure</text>

  <rect x="580" y="124" width="210" height="72" rx="14" fill="#d7f5ef" stroke="#0c5a69" stroke-width="2" />
  <text x="685" y="160" text-anchor="middle" font-family="Manrope, sans-serif" font-size="16" fill="#0c5a69" font-weight="700" dominant-baseline="middle">Clarity</text>

  <rect x="580" y="236" width="210" height="72" rx="14" fill="#ffffff" stroke="#0c5a69" stroke-width="2" />
  <text x="685" y="272" text-anchor="middle" font-family="Manrope, sans-serif" font-size="16" fill="#0c5a69" font-weight="700" dominant-baseline="middle">Trust</text>

  <path d="M260 175 C280 172 288 150 300 150" stroke="#0c5a69" stroke-width="2" fill="none" marker-end="url(#arrow)" />
  <path d="M415 160 V198" stroke="#0c5a69" stroke-width="2" fill="none" marker-end="url(#arrow)" />
  <path d="M530 235 C555 210 558 176 580 170" stroke="#0c5a69" stroke-width="2" fill="none" marker-end="url(#arrow)" />
  <path d="M685 198 V236" stroke="#0c5a69" stroke-width="2" fill="none" marker-end="url(#arrow)" />

  <g>
    <rect x="182" y="98" width="160" height="28" rx="8" fill="#f3fbf7" stroke="#cfeee6" />
    <text x="262" y="116" text-anchor="middle" font-family="Manrope, sans-serif" font-size="13" fill="#4a463f" font-weight="600" dominant-baseline="middle">Remove ornament</text>
  </g>

  <g>
    <rect x="438" y="170" width="140" height="26" rx="8" fill="#f3fbf7" stroke="#cfeee6" />
    <text x="508" y="183" text-anchor="middle" font-family="Manrope, sans-serif" font-size="13" fill="#4a463f" font-weight="600" dominant-baseline="middle">Expose logic</text>
  </g>

  <g>
    <rect x="610" y="206" width="170" height="28" rx="8" fill="#f3fbf7" stroke="#cfeee6" />
    <text x="695" y="220" text-anchor="middle" font-family="Manrope, sans-serif" font-size="13" fill="#4a463f" font-weight="600" dominant-baseline="middle">Reader confidence</text>
  </g>

  <circle cx="265" cy="140" r="6" fill="#0c5a69" opacity="0.4" />
  <circle cx="545" cy="188" r="6" fill="#0c5a69" opacity="0.35" />
  <circle cx="620" cy="120" r="5" fill="#0c5a69" opacity="0.25" />
</svg>
