<svg width="880" height="320" viewBox="0 0 880 320" fill="none" xmlns="http://www.w3.org/2000/svg">
  <rect width="880" height="320" rx="24" fill="#ffffff" stroke="#e9e5df" stroke-width="2" />
  <rect x="90" y="70" width="210" height="70" rx="12" fill="#d7f5ef" stroke="#0c5a69" stroke-width="2" />
  <text x="195" y="112" text-anchor="middle" font-family="Manrope, sans-serif" font-size="15" fill="#0c5a69" font-weight="700">Idea</text>

  <rect x="350" y="50" width="220" height="70" rx="12" fill="#ffffff" stroke="#0c5a69" stroke-width="2" />
  <text x="460" y="92" text-anchor="middle" font-family="Manrope, sans-serif" font-size="15" fill="#0c5a69" font-weight="700">Plain language</text>

  <rect x="350" y="140" width="220" height="70" rx="12" fill="#ffffff" stroke="#0c5a69" stroke-width="2" />
  <text x="460" y="182" text-anchor="middle" font-family="Manrope, sans-serif" font-size="15" fill="#0c5a69" font-weight="700">Structure</text>

  <rect x="620" y="90" width="170" height="70" rx="12" fill="#d7f5ef" stroke="#0c5a69" stroke-width="2" />
  <text x="705" y="132" text-anchor="middle" font-family="Manrope, sans-serif" font-size="15" fill="#0c5a69" font-weight="700">Clarity</text>

  <rect x="620" y="180" width="170" height="70" rx="12" fill="#ffffff" stroke="#0c5a69" stroke-width="2" />
  <text x="705" y="222" text-anchor="middle" font-family="Manrope, sans-serif" font-size="15" fill="#0c5a69" font-weight="700">Trust</text>

  <path d="M300 105 H350" stroke="#0c5a69" stroke-width="2" marker-end="url(#arrow)" />
  <path d="M460 120 V140" stroke="#0c5a69" stroke-width="2" marker-end="url(#arrow)" />
  <path d="M570 85 H620" stroke="#0c5a69" stroke-width="2" marker-end="url(#arrow)" />
  <path d="M570 175 H620" stroke="#0c5a69" stroke-width="2" marker-end="url(#arrow)" />
  <path d="M705 160 V180" stroke="#0c5a69" stroke-width="2" marker-end="url(#arrow)" />

  <text x="325" y="90" font-family="Manrope, sans-serif" font-size="13" fill="#4a463f">Remove ornament</text>
  <text x="510" y="130" font-family="Manrope, sans-serif" font-size="13" fill="#4a463f">Expose logic</text>
  <text x="655" y="175" font-family="Manrope, sans-serif" font-size="13" fill="#4a463f">Reader confidence</text>

  <defs>
    <marker id="arrow" markerWidth="10" markerHeight="10" refX="5" refY="5" orient="auto" fill="#0c5a69">
      <path d="M0 0 L10 5 L0 10 z" />
    </marker>
  </defs>
</svg>
